<svg xmlns="http://www.w3.org/2000/svg" version="1.1" xmlns:xlink="http://www.w3.org/1999/xlink" xmlns:svgjs="http://svgjs.dev/svgjs" width="1440" height="560" preserveAspectRatio="none" viewBox="0 0 1440 560"><g mask="url(&quot;#SvgjsMask1078&quot;)" fill="none"><rect width="1440" height="560" x="0" y="0" fill="rgba(21, 67, 96, 1)"></rect><path d="M0,535.357C101.019,516.419,207.222,512.22,290.267,451.664C370.999,392.795,417.568,300.166,451.444,206.168C483.296,117.788,489.068,24.569,477.804,-68.698C466.332,-163.696,447.114,-260.847,386.139,-334.591C324.493,-409.147,223.656,-428.375,140.096,-477.125C24.789,-544.397,-69.853,-711.703,-198.377,-675.609C-326.32,-639.679,-298.335,-434.229,-381.563,-330.627C-459.928,-233.078,-617.879,-211.688,-664.383,-95.524C-712.986,25.883,-681.478,167.471,-628.903,287.211C-575.893,407.94,-492.443,527.011,-369.791,575.406C-252.075,621.853,-124.381,558.675,0,535.357" fill="#10344b"></path><path d="M1440 906.374C1509.933 908.98 1578.314 902.068 1643.544 876.72 1720.783 846.7049999999999 1807.209 818.236 1849.7730000000001 747.137 1893.431 674.211 1889.8899999999999 580.828 1870.1779999999999 498.15 1851.435 419.539 1802.836 351.679 1742.632 297.768 1687.161 248.096 1615.919 225.074 1543.939 206.01600000000002 1473.676 187.413 1402.628 176.43400000000003 1331 188.77999999999997 1252.892 202.243 1174.311 225.462 1116.507 279.692 1055.587 336.846 996.7180000000001 413.73900000000003 1002.384 497.08 1008.008 579.79 1098.699 625.899 1144.733 694.844 1181.638 750.117 1191.949 823.202 1245.976 861.9069999999999 1301.029 901.347 1372.324 903.852 1440 906.374" fill="#1a5275"></path></g><defs><mask id="SvgjsMask1078"><rect width="1440" height="560" fill="#ffffff"></rect></mask></defs></svg>