<svg id="visual" viewBox="0 0 1440 400" width="1440" height="400" xmlns="http://www.w3.org/2000/svg" xmlns:xlink="http://www.w3.org/1999/xlink" version="1.1"><path d="M0 81L21.8 84.3C43.7 87.7 87.3 94.3 131 91.7C174.7 89 218.3 77 262 68.3C305.7 59.7 349.3 54.3 393 57C436.7 59.7 480.3 70.3 524 77.7C567.7 85 611.3 89 654.8 86.3C698.3 83.7 741.7 74.3 785.2 71C828.7 67.7 872.3 70.3 916 71.7C959.7 73 1003.3 73 1047 78.3C1090.7 83.7 1134.3 94.3 1178 88.3C1221.7 82.3 1265.3 59.7 1309 50.3C1352.7 41 1396.3 45 1418.2 47L1440 49L1440 0L1418.2 0C1396.3 0 1352.7 0 1309 0C1265.3 0 1221.7 0 1178 0C1134.3 0 1090.7 0 1047 0C1003.3 0 959.7 0 916 0C872.3 0 828.7 0 785.2 0C741.7 0 698.3 0 654.8 0C611.3 0 567.7 0 524 0C480.3 0 436.7 0 393 0C349.3 0 305.7 0 262 0C218.3 0 174.7 0 131 0C87.3 0 43.7 0 21.8 0L0 0Z" fill="#f0f6ff"></path><path d="M0 141L21.8 143C43.7 145 87.3 149 131 145.7C174.7 142.3 218.3 131.7 262 124.3C305.7 117 349.3 113 393 115C436.7 117 480.3 125 524 133.7C567.7 142.3 611.3 151.7 654.8 146.3C698.3 141 741.7 121 785.2 117C828.7 113 872.3 125 916 130.3C959.7 135.7 1003.3 134.3 1047 138.3C1090.7 142.3 1134.3 151.7 1178 147C1221.7 142.3 1265.3 123.7 1309 112.3C1352.7 101 1396.3 97 1418.2 95L1440 93L1440 47L1418.2 45C1396.3 43 1352.7 39 1309 48.3C1265.3 57.7 1221.7 80.3 1178 86.3C1134.3 92.3 1090.7 81.7 1047 76.3C1003.3 71 959.7 71 916 69.7C872.3 68.3 828.7 65.7 785.2 69C741.7 72.3 698.3 81.7 654.8 84.3C611.3 87 567.7 83 524 75.7C480.3 68.3 436.7 57.7 393 55C349.3 52.3 305.7 57.7 262 66.3C218.3 75 174.7 87 131 89.7C87.3 92.3 43.7 85.7 21.8 82.3L0 79Z" fill="#edf4ff"></path><path d="M0 193L21.8 197C43.7 201 87.3 209 131 204.3C174.7 199.7 218.3 182.3 262 173C305.7 163.7 349.3 162.3 393 164.3C436.7 166.3 480.3 171.7 524 179C567.7 186.3 611.3 195.7 654.8 188.3C698.3 181 741.7 157 785.2 150.3C828.7 143.7 872.3 154.3 916 163C959.7 171.7 1003.3 178.3 1047 183.7C1090.7 189 1134.3 193 1178 192.3C1221.7 191.7 1265.3 186.3 1309 181.7C1352.7 177 1396.3 173 1418.2 171L1440 169L1440 91L1418.2 93C1396.3 95 1352.7 99 1309 110.3C1265.3 121.7 1221.7 140.3 1178 145C1134.3 149.7 1090.7 140.3 1047 136.3C1003.3 132.3 959.7 133.7 916 128.3C872.3 123 828.7 111 785.2 115C741.7 119 698.3 139 654.8 144.3C611.3 149.7 567.7 140.3 524 131.7C480.3 123 436.7 115 393 113C349.3 111 305.7 115 262 122.3C218.3 129.7 174.7 140.3 131 143.7C87.3 147 43.7 143 21.8 141L0 139Z" fill="#e9f2ff"></path><path d="M0 345L21.8 342.3C43.7 339.7 87.3 334.3 131 326.3C174.7 318.3 218.3 307.7 262 307.7C305.7 307.7 349.3 318.3 393 311C436.7 303.7 480.3 278.3 524 280.3C567.7 282.3 611.3 311.7 654.8 321.7C698.3 331.7 741.7 322.3 785.2 321C828.7 319.7 872.3 326.3 916 325.7C959.7 325 1003.3 317 1047 311.7C1090.7 306.3 1134.3 303.7 1178 300.3C1221.7 297 1265.3 293 1309 282.3C1352.7 271.7 1396.3 254.3 1418.2 245.7L1440 237L1440 167L1418.2 169C1396.3 171 1352.7 175 1309 179.7C1265.3 184.3 1221.7 189.7 1178 190.3C1134.3 191 1090.7 187 1047 181.7C1003.3 176.3 959.7 169.7 916 161C872.3 152.3 828.7 141.7 785.2 148.3C741.7 155 698.3 179 654.8 186.3C611.3 193.7 567.7 184.3 524 177C480.3 169.7 436.7 164.3 393 162.3C349.3 160.3 305.7 161.7 262 171C218.3 180.3 174.7 197.7 131 202.3C87.3 207 43.7 199 21.8 195L0 191Z" fill="#d9e9ff"></path><path d="M0 401L21.8 401C43.7 401 87.3 401 131 401C174.7 401 218.3 401 262 401C305.7 401 349.3 401 393 401C436.7 401 480.3 401 524 401C567.7 401 611.3 401 654.8 401C698.3 401 741.7 401 785.2 401C828.7 401 872.3 401 916 401C959.7 401 1003.3 401 1047 401C1090.7 401 1134.3 401 1178 401C1221.7 401 1265.3 401 1309 401C1352.7 401 1396.3 401 1418.2 401L1440 401L1440 235L1418.2 243.7C1396.3 252.3 1352.7 269.7 1309 280.3C1265.3 291 1221.7 295 1178 298.3C1134.3 301.7 1090.7 304.3 1047 309.7C1003.3 315 959.7 323 916 323.7C872.3 324.3 828.7 317.7 785.2 319C741.7 320.3 698.3 329.7 654.8 319.7C611.3 309.7 567.7 280.3 524 278.3C480.3 276.3 436.7 301.7 393 309C349.3 316.3 305.7 305.7 262 305.7C218.3 305.7 174.7 316.3 131 324.3C87.3 332.3 43.7 337.7 21.8 340.3L0 343Z" fill="#c9dfff"></path></svg>